<svg width="202" height="200" viewBox="0 0 202 200" fill="none" xmlns="http://www.w3.org/2000/svg">
<path d="M15.7741 75.3711H12.9531V78.2707H15.7741V75.3711Z" fill="#FFB0B0"/>
<path d="M27.9724 75.3711H25.1514V78.2707H27.9724V75.3711Z" fill="#FFB0B0"/>
<path d="M40.1413 75.3711H37.3203V78.2707H40.1413V75.3711Z" fill="#FFB0B0"/>
<path d="M3.60323 87.7148H0.782227V90.6145H3.60323V87.7148Z" fill="#FFB0B0"/>
<path d="M15.7741 87.7148H12.9531V90.6145H15.7741V87.7148Z" fill="#FFB0B0"/>
<path d="M27.9724 87.7148H25.1514V90.6145H27.9724V87.7148Z" fill="#FFB0B0"/>
<path d="M40.1413 87.7148H37.3203V90.6145H40.1413V87.7148Z" fill="#FFB0B0"/>
<path d="M52.3386 87.7148H49.5176V90.6145H52.3386V87.7148Z" fill="#FFB0B0"/>
<path d="M3.60323 100.031H0.782227V102.931H3.60323V100.031Z" fill="#FFB0B0"/>
<path d="M15.7741 100.031H12.9531V102.931H15.7741V100.031Z" fill="#FFB0B0"/>
<path d="M27.9724 100.031H25.1514V102.931H27.9724V100.031Z" fill="#FFB0B0"/>
<path d="M40.1413 100.031H37.3203V102.931H40.1413V100.031Z" fill="#FFB0B0"/>
<path d="M52.3386 100.031H49.5176V102.931H52.3386V100.031Z" fill="#FFB0B0"/>
<path d="M3.60323 112.375H0.782227V115.275H3.60323V112.375Z" fill="#FFB0B0"/>
<path d="M15.7741 112.375H12.9531V115.275H15.7741V112.375Z" fill="#FFB0B0"/>
<path d="M27.9724 112.375H25.1514V115.275H27.9724V112.375Z" fill="#FFB0B0"/>
<path d="M40.1413 112.375H37.3203V115.275H40.1413V112.375Z" fill="#FFB0B0"/>
<path d="M52.3386 112.375H49.5176V115.275H52.3386V112.375Z" fill="#FFB0B0"/>
<path d="M15.7741 124.719H12.9531V127.618H15.7741V124.719Z" fill="#FFB0B0"/>
<path d="M27.9724 124.719H25.1514V127.618H27.9724V124.719Z" fill="#FFB0B0"/>
<path d="M40.1413 124.719H37.3203V127.618H40.1413V124.719Z" fill="#FFB0B0"/>
<ellipse cx="85.959" cy="117.074" rx="50" ry="49.5935" fill="#FFB0B0"/>
<path d="M147.663 130.738L150.575 145.941C150.818 146.741 150.575 147.808 149.847 148.342L140.626 159.011L138.928 151.809L142.082 143.274L140.384 133.672" stroke="#183163" stroke-width="0.5"/>
<mask id="path-24-outside-1_1748_18784" maskUnits="userSpaceOnUse" x="99.2578" y="129.469" width="14" height="34" fill="black">
<rect fill="white" x="99.2578" y="129.469" width="14" height="34"/>
<path fill-rule="evenodd" clip-rule="evenodd" d="M103.261 130.469L100.349 145.672C100.106 146.472 100.349 147.539 101.077 148.072L112.481 161.408L111.996 151.54L108.842 143.005L110.54 133.403"/>
</mask>
<path fill-rule="evenodd" clip-rule="evenodd" d="M103.261 130.469L100.349 145.672C100.106 146.472 100.349 147.539 101.077 148.072L112.481 161.408L111.996 151.54L108.842 143.005L110.54 133.403" fill="white"/>
<path d="M100.349 145.672L100.827 145.817L100.835 145.792L100.84 145.766L100.349 145.672ZM101.077 148.072L101.457 147.747L101.419 147.703L101.372 147.669L101.077 148.072ZM112.481 161.408L112.101 161.733L113.053 162.846L112.981 161.384L112.481 161.408ZM111.996 151.54L112.495 151.515L112.492 151.438L112.465 151.366L111.996 151.54ZM108.842 143.005L108.349 142.917L108.326 143.051L108.373 143.178L108.842 143.005ZM102.77 130.375L99.8577 145.578L100.84 145.766L103.752 130.563L102.77 130.375ZM99.8703 145.527C99.5781 146.49 99.8509 147.794 100.781 148.476L101.372 147.669C100.847 147.284 100.634 146.454 100.827 145.817L99.8703 145.527ZM100.697 148.397L112.101 161.733L112.861 161.083L101.457 147.747L100.697 148.397ZM112.981 161.384L112.495 151.515L111.497 151.564L111.982 161.433L112.981 161.384ZM112.465 151.366L109.311 142.831L108.373 143.178L111.527 151.713L112.465 151.366ZM109.334 143.092L111.032 133.49L110.048 133.316L108.349 142.917L109.334 143.092Z" fill="#183163" mask="url(#path-24-outside-1_1748_18784)"/>
<mask id="path-26-outside-2_1748_18784" maskUnits="userSpaceOnUse" x="99.9912" y="114.535" width="51" height="46" fill="black">
<rect fill="white" x="99.9912" y="114.535" width="51" height="46"/>
<path fill-rule="evenodd" clip-rule="evenodd" d="M145.668 121.506C144.455 119.567 140.815 116.796 138.874 115.965C136.69 114.857 126.742 116.242 125.771 116.242C124.8 116.242 115.094 114.857 112.91 115.965C110.969 116.796 107.33 119.567 106.116 121.506C104.66 124 101.991 132.312 101.991 132.312L111.212 137.022V158.91H140.573V137.022L150.186 131.389"/>
</mask>
<path fill-rule="evenodd" clip-rule="evenodd" d="M145.668 121.506C144.455 119.567 140.815 116.796 138.874 115.965C136.69 114.857 126.742 116.242 125.771 116.242C124.8 116.242 115.094 114.857 112.91 115.965C110.969 116.796 107.33 119.567 106.116 121.506C104.66 124 101.991 132.312 101.991 132.312L111.212 137.022V158.91H140.573V137.022L150.186 131.389" fill="white"/>
<path d="M150.186 131.389L149.731 131.597L150.655 131.215L150.186 131.389ZM146.17 120.542L146.638 120.368L146.579 120.208L146.435 120.118L146.17 120.542ZM145.214 121.714L149.731 131.597L150.64 131.181L146.123 121.298L145.214 121.714ZM138.608 116.388L145.904 120.965L146.435 120.118L139.14 115.541L138.608 116.388ZM145.701 120.715L149.717 131.562L150.655 131.215L146.638 120.368L145.701 120.715ZM138.874 115.965L138.422 116.857L138.451 116.871L138.48 116.884L138.874 115.965ZM112.91 115.965L113.304 116.884L113.334 116.871L113.363 116.857L112.91 115.965ZM106.116 121.506L105.268 120.976L105.26 120.989L105.253 121.002L106.116 121.506ZM101.991 132.312L101.039 132.006L100.779 132.816L101.536 133.202L101.991 132.312ZM111.212 137.022H112.212V136.41L111.667 136.131L111.212 137.022ZM111.212 158.91H110.212V159.91H111.212V158.91ZM140.573 158.91V159.91H141.573V158.91H140.573ZM140.573 137.022L140.067 136.159L139.573 136.449V137.022H140.573ZM146.516 120.976C145.817 119.858 144.494 118.595 143.167 117.538C141.831 116.474 140.356 115.512 139.268 115.046L138.48 116.884C139.333 117.249 140.648 118.088 141.921 119.102C143.203 120.123 144.306 121.215 144.821 122.037L146.516 120.976ZM139.327 115.073C138.906 114.86 138.382 114.742 137.864 114.668C137.327 114.593 136.712 114.554 136.063 114.541C134.762 114.514 133.248 114.586 131.796 114.69C130.339 114.795 128.924 114.935 127.819 115.048C126.662 115.166 125.946 115.242 125.771 115.242V117.242C126.081 117.242 126.973 117.145 128.022 117.038C129.124 116.925 130.514 116.788 131.939 116.685C133.368 116.582 134.812 116.515 136.021 116.54C136.626 116.553 137.155 116.588 137.584 116.649C138.031 116.712 138.296 116.793 138.422 116.857L139.327 115.073ZM125.771 115.242C125.597 115.242 124.898 115.166 123.763 115.048C122.68 114.935 121.295 114.796 119.869 114.691C118.447 114.586 116.962 114.514 115.684 114.541C115.045 114.554 114.439 114.593 113.909 114.669C113.395 114.742 112.877 114.861 112.458 115.073L113.363 116.857C113.49 116.792 113.753 116.711 114.192 116.649C114.614 116.588 115.133 116.553 115.726 116.54C116.912 116.515 118.324 116.582 119.722 116.685C121.117 116.788 122.477 116.925 123.556 117.037C124.582 117.144 125.459 117.242 125.771 117.242V115.242ZM112.517 115.046C111.429 115.512 109.953 116.474 108.617 117.538C107.29 118.595 105.968 119.858 105.268 120.976L106.964 122.037C107.478 121.215 108.582 120.123 109.863 119.102C111.136 118.088 112.451 117.249 113.304 116.884L112.517 115.046ZM105.253 121.002C104.468 122.346 103.406 125.145 102.566 127.509C102.138 128.712 101.757 129.835 101.482 130.658C101.345 131.069 101.235 131.405 101.158 131.639C101.12 131.756 101.09 131.848 101.07 131.91C101.06 131.941 101.052 131.965 101.047 131.981C101.045 131.989 101.043 131.995 101.041 132C101.041 132.002 101.04 132.003 101.04 132.004C101.039 132.005 101.039 132.005 101.039 132.006C101.039 132.006 101.039 132.006 101.039 132.006C101.039 132.006 101.039 132.006 101.991 132.312C102.943 132.618 102.943 132.618 102.943 132.618C102.943 132.617 102.943 132.617 102.943 132.617C102.943 132.617 102.944 132.617 102.944 132.616C102.944 132.615 102.944 132.614 102.945 132.612C102.946 132.608 102.948 132.602 102.951 132.595C102.956 132.579 102.963 132.556 102.973 132.526C102.993 132.465 103.022 132.375 103.059 132.26C103.135 132.03 103.244 131.697 103.38 131.291C103.651 130.477 104.028 129.366 104.45 128.179C105.308 125.764 106.309 123.16 106.98 122.01L105.253 121.002ZM101.536 133.202L110.757 137.913L111.667 136.131L102.446 131.421L101.536 133.202ZM110.212 137.022V158.91H112.212V137.022H110.212ZM111.212 159.91H140.573V157.91H111.212V159.91ZM141.573 158.91V137.022H139.573V158.91H141.573ZM141.078 137.885L150.691 132.252L149.68 130.526L140.067 136.159L141.078 137.885Z" fill="#183163" mask="url(#path-26-outside-2_1748_18784)"/>
<path fill-rule="evenodd" clip-rule="evenodd" d="M126.068 118.998C123.399 118.998 122.186 117.664 122.186 116.598C122.186 115.531 122.913 114.73 123.884 114.73H128.494C129.465 114.73 130.193 115.531 130.193 116.598" fill="#EDA988"/>
<mask id="path-29-outside-3_1748_18784" maskUnits="userSpaceOnUse" x="115.45" y="92.043" width="20" height="21" fill="black">
<rect fill="white" x="115.45" y="92.043" width="20" height="21"/>
<path fill-rule="evenodd" clip-rule="evenodd" d="M133.65 105.465L134.122 99.9278C134.122 98.6094 133.65 97.291 132.708 96.7637C130.823 95.4453 127.76 93.3358 126.111 93.0722C122.105 92.8085 121.163 94.3905 118.806 95.4453C117.628 95.9726 116.686 97.291 116.686 98.8731L116.45 105.465V108.366L124.697 112.321L132.237 109.42"/>
</mask>
<path fill-rule="evenodd" clip-rule="evenodd" d="M133.65 105.465L134.122 99.9278C134.122 98.6094 133.65 97.291 132.708 96.7637C130.823 95.4453 127.76 93.3358 126.111 93.0722C122.105 92.8085 121.163 94.3905 118.806 95.4453C117.628 95.9726 116.686 97.291 116.686 98.8731L116.45 105.465V108.366L124.697 112.321L132.237 109.42" fill="white"/>
<path d="M134.122 99.9278L134.62 99.9702L134.622 99.9491V99.9278H134.122ZM132.708 96.7637L132.421 97.1734L132.442 97.1878L132.464 97.2L132.708 96.7637ZM126.111 93.0722L126.189 92.5784L126.167 92.5748L126.143 92.5732L126.111 93.0722ZM118.806 95.4453L118.602 94.9889L118.806 95.4453ZM116.686 98.8731L117.185 98.891L117.186 98.882V98.8731H116.686ZM116.45 105.465L115.951 105.447L115.95 105.456V105.465H116.45ZM116.45 108.366H115.95V108.68L116.234 108.816L116.45 108.366ZM124.697 112.321L124.481 112.772L124.675 112.865L124.876 112.787L124.697 112.321ZM134.148 105.508L134.62 99.9702L133.623 99.8854L133.152 105.423L134.148 105.508ZM134.622 99.9278C134.622 99.213 134.494 98.4863 134.229 97.8553C133.965 97.2263 133.548 96.6611 132.952 96.3273L132.464 97.2C132.81 97.3936 133.1 97.7513 133.307 98.2429C133.513 98.7326 133.622 99.3243 133.622 99.9278H134.622ZM132.994 96.3539C132.052 95.6949 130.802 94.8288 129.578 94.0937C128.377 93.3725 127.122 92.7275 126.189 92.5784L126.032 93.5659C126.748 93.6805 127.849 94.222 129.063 94.951C130.254 95.6662 131.478 96.514 132.421 97.1734L132.994 96.3539ZM126.143 92.5732C121.974 92.2987 120.774 94.0165 118.602 94.9889L119.011 95.9016C121.551 94.7646 122.236 93.3182 126.078 93.5711L126.143 92.5732ZM118.602 94.9889C117.243 95.5974 116.186 97.0954 116.186 98.8731H117.186C117.186 97.4867 118.014 96.3479 119.011 95.9016L118.602 94.9889ZM116.186 98.8552L115.951 105.447L116.95 105.483L117.185 98.891L116.186 98.8552ZM115.95 105.465V108.366H116.95V105.465H115.95ZM116.234 108.816L124.481 112.772L124.913 111.87L116.666 107.915L116.234 108.816ZM124.876 112.787L132.416 109.887L132.057 108.954L124.517 111.854L124.876 112.787Z" fill="#183163" mask="url(#path-29-outside-3_1748_18784)"/>
<mask id="path-31-outside-4_1748_18784" maskUnits="userSpaceOnUse" x="115.363" y="101.469" width="20" height="19" fill="black">
<rect fill="white" x="115.363" y="101.469" width="20" height="19"/>
<path fill-rule="evenodd" clip-rule="evenodd" d="M132.864 111.27V113.404C132.864 114.204 132.621 115.005 131.893 115.538C130.437 116.872 127.283 119.005 125.827 119.005C124.371 119.005 121.459 117.138 119.76 115.805C119.032 115.271 118.547 114.471 118.547 113.404L118.304 111.004L117.334 110.47C117.091 110.204 116.849 109.937 116.849 109.67L116.363 106.203L117.091 105.136L118.062 108.87H118.79V103.269C118.79 103.002 119.032 103.002 119.032 103.002C119.76 103.536 121.216 104.603 122.672 104.603C127.525 104.603 130.68 103.002 131.65 102.469C131.893 102.469 132.136 102.469 132.136 102.735V109.137H133.349L134.077 105.403L134.562 105.936V108.87C134.562 109.137 134.562 109.403 134.319 109.67"/>
</mask>
<path fill-rule="evenodd" clip-rule="evenodd" d="M132.864 111.27V113.404C132.864 114.204 132.621 115.005 131.893 115.538C130.437 116.872 127.283 119.005 125.827 119.005C124.371 119.005 121.459 117.138 119.76 115.805C119.032 115.271 118.547 114.471 118.547 113.404L118.304 111.004L117.334 110.47C117.091 110.204 116.849 109.937 116.849 109.67L116.363 106.203L117.091 105.136L118.062 108.87H118.79V103.269C118.79 103.002 119.032 103.002 119.032 103.002C119.76 103.536 121.216 104.603 122.672 104.603C127.525 104.603 130.68 103.002 131.65 102.469C131.893 102.469 132.136 102.469 132.136 102.735V109.137H133.349L134.077 105.403L134.562 105.936V108.87C134.562 109.137 134.562 109.403 134.319 109.67" fill="white"/>
<path d="M134.134 109.502L132.679 111.102L133.048 111.439L134.504 109.838L134.134 109.502ZM131.893 115.538L131.597 115.135L131.575 115.151L131.555 115.169L131.893 115.538ZM119.76 115.805L120.069 115.411L120.063 115.406L120.056 115.401L119.76 115.805ZM118.547 113.404H119.047V113.379L119.045 113.354L118.547 113.404ZM118.304 111.004L118.802 110.953L118.776 110.692L118.545 110.566L118.304 111.004ZM117.334 110.47L116.964 110.807L117.02 110.868L117.093 110.909L117.334 110.47ZM116.849 109.67H117.349V109.635L117.344 109.601L116.849 109.67ZM116.363 106.203L115.95 105.921L115.841 106.081L115.868 106.272L116.363 106.203ZM117.091 105.136L117.575 105.01L117.298 103.945L116.678 104.854L117.091 105.136ZM118.062 108.87L117.578 108.996L117.675 109.37H118.062V108.87ZM118.79 108.87V109.37H119.29V108.87H118.79ZM119.032 103.002L119.328 102.599L119.196 102.502L119.032 102.502L119.032 103.002ZM131.65 102.469V101.969H131.522L131.409 102.031L131.65 102.469ZM132.136 109.137H131.636V109.637H132.136V109.137ZM133.349 109.137V109.637H133.761L133.84 109.232L133.349 109.137ZM134.077 105.403L134.447 105.066L133.777 104.33L133.586 105.307L134.077 105.403ZM134.562 105.936H135.062V105.743L134.932 105.6L134.562 105.936ZM132.364 111.27V113.404H133.364V111.27H132.364ZM132.364 113.404C132.364 114.107 132.154 114.727 131.597 115.135L132.188 115.941C133.088 115.282 133.364 114.302 133.364 113.404H132.364ZM131.555 115.169C130.854 115.811 129.729 116.659 128.6 117.344C128.037 117.687 127.483 117.982 126.99 118.19C126.484 118.404 126.089 118.505 125.827 118.505V119.505C126.293 119.505 126.838 119.34 127.378 119.112C127.931 118.878 128.53 118.557 129.119 118.199C130.296 117.484 131.476 116.598 132.231 115.907L131.555 115.169ZM125.827 118.505C125.555 118.505 125.168 118.415 124.684 118.227C124.21 118.042 123.679 117.779 123.13 117.47C122.034 116.851 120.902 116.065 120.069 115.411L119.452 116.198C120.317 116.878 121.491 117.693 122.639 118.341C123.213 118.664 123.789 118.952 124.322 119.159C124.847 119.363 125.371 119.505 125.827 119.505V118.505ZM120.056 115.401C119.445 114.954 119.047 114.298 119.047 113.404H118.047C118.047 114.644 118.62 115.589 119.465 116.208L120.056 115.401ZM119.045 113.354L118.802 110.953L117.807 111.054L118.05 113.455L119.045 113.354ZM118.545 110.566L117.575 110.032L117.093 110.909L118.064 111.442L118.545 110.566ZM117.704 110.134C117.577 109.994 117.481 109.887 117.413 109.788C117.344 109.687 117.349 109.655 117.349 109.67H116.349C116.349 109.952 116.475 110.187 116.587 110.352C116.702 110.52 116.849 110.68 116.964 110.807L117.704 110.134ZM117.344 109.601L116.858 106.134L115.868 106.272L116.353 109.739L117.344 109.601ZM116.776 106.485L117.504 105.418L116.678 104.854L115.95 105.921L116.776 106.485ZM116.607 105.262L117.578 108.996L118.546 108.744L117.575 105.01L116.607 105.262ZM118.062 109.37H118.79V108.37H118.062V109.37ZM119.29 108.87V103.269H118.29V108.87H119.29ZM119.29 103.269C119.29 103.281 119.286 103.323 119.255 103.374C119.225 103.424 119.184 103.456 119.152 103.474C119.122 103.49 119.098 103.496 119.085 103.498C119.077 103.5 119.069 103.501 119.061 103.501C119.057 103.501 119.053 103.502 119.048 103.502C119.046 103.502 119.043 103.502 119.041 103.502C119.039 103.502 119.038 103.502 119.037 103.502C119.036 103.502 119.035 103.502 119.035 103.502C119.034 103.502 119.034 103.502 119.034 103.502C119.033 103.502 119.033 103.502 119.033 103.502C119.033 103.502 119.032 103.502 119.032 103.002C119.032 102.502 119.032 102.502 119.032 102.502C119.032 102.502 119.032 102.502 119.031 102.502C119.031 102.502 119.031 102.502 119.03 102.502C119.029 102.502 119.029 102.502 119.028 102.502C119.026 102.502 119.025 102.502 119.023 102.502C119.019 102.502 119.016 102.502 119.011 102.503C119.003 102.503 118.994 102.503 118.983 102.504C118.962 102.506 118.935 102.509 118.904 102.515C118.845 102.525 118.76 102.548 118.67 102.597C118.577 102.648 118.476 102.73 118.4 102.855C118.324 102.982 118.29 103.124 118.29 103.269H119.29ZM118.737 103.405C119.1 103.671 119.673 104.092 120.347 104.445C121.017 104.796 121.829 105.103 122.672 105.103V104.103C122.06 104.103 121.415 103.876 120.811 103.559C120.211 103.245 119.693 102.866 119.328 102.599L118.737 103.405ZM122.672 105.103C127.639 105.103 130.878 103.464 131.891 102.907L131.409 102.031C130.481 102.541 127.411 104.103 122.672 104.103V105.103ZM131.65 102.969C131.715 102.969 131.757 102.969 131.792 102.972C131.828 102.974 131.829 102.978 131.812 102.972C131.79 102.963 131.733 102.936 131.686 102.87C131.639 102.804 131.636 102.745 131.636 102.735H132.636C132.636 102.592 132.602 102.434 132.502 102.292C132.402 102.151 132.269 102.074 132.156 102.033C131.964 101.962 131.741 101.969 131.65 101.969V102.969ZM131.636 102.735V109.137H132.636V102.735H131.636ZM132.136 109.637H133.349V108.637H132.136V109.637ZM133.84 109.232L134.568 105.498L133.586 105.307L132.858 109.041L133.84 109.232ZM133.707 105.739L134.192 106.273L134.932 105.6L134.447 105.066L133.707 105.739ZM134.062 105.936V108.87H135.062V105.936H134.062ZM134.062 108.87C134.062 109.012 134.06 109.089 134.044 109.159C134.032 109.214 134.009 109.268 133.95 109.334L134.689 110.007C135.072 109.586 135.062 109.138 135.062 108.87H134.062Z" fill="#183163" mask="url(#path-31-outside-4_1748_18784)"/>
<mask id="path-33-inside-5_1748_18784" fill="white">
<path fill-rule="evenodd" clip-rule="evenodd" d="M141.114 163.809H109.812C109.084 163.809 108.356 163.009 108.356 162.208V140.604C108.356 139.804 109.084 139.004 109.812 139.004H140.872C141.6 139.004 142.328 139.804 142.328 140.604V162.208"/>
</mask>
<path fill-rule="evenodd" clip-rule="evenodd" d="M141.114 163.809H109.812C109.084 163.809 108.356 163.009 108.356 162.208V140.604C108.356 139.804 109.084 139.004 109.812 139.004H140.872C141.6 139.004 142.328 139.804 142.328 140.604V162.208" fill="#183163"/>
<path d="M141.114 163.509H109.812V164.109H141.114V163.509ZM109.812 163.509C109.556 163.509 109.268 163.364 109.033 163.107C108.801 162.851 108.656 162.521 108.656 162.208H108.056C108.056 162.697 108.276 163.166 108.59 163.511C108.901 163.853 109.34 164.109 109.812 164.109V163.509ZM108.656 162.208V140.604H108.056V162.208H108.656ZM108.656 140.604C108.656 140.292 108.801 139.961 109.033 139.706C109.268 139.448 109.556 139.304 109.812 139.304V138.704C109.34 138.704 108.901 138.959 108.59 139.302C108.276 139.647 108.056 140.116 108.056 140.604H108.656ZM109.812 139.304H140.872V138.704H109.812V139.304ZM140.872 139.304C141.128 139.304 141.416 139.448 141.651 139.706C141.883 139.961 142.028 140.292 142.028 140.604H142.628C142.628 140.116 142.408 139.647 142.094 139.302C141.783 138.959 141.344 138.704 140.872 138.704V139.304ZM142.028 140.604V162.208H142.628V140.604H142.028Z" fill="#183163" mask="url(#path-33-inside-5_1748_18784)"/>
<mask id="path-35-inside-6_1748_18784" fill="white">
<path fill-rule="evenodd" clip-rule="evenodd" d="M145.48 169.414L146.208 175.549L141.598 175.015L140.87 169.414"/>
</mask>
<path fill-rule="evenodd" clip-rule="evenodd" d="M145.48 169.414L146.208 175.549L141.598 175.015L140.87 169.414" fill="white"/>
<path d="M146.208 175.549L146.151 176.045L146.78 176.118L146.705 175.49L146.208 175.549ZM141.598 175.015L141.102 175.08L141.153 175.467L141.541 175.512L141.598 175.015ZM144.984 169.473L145.712 175.608L146.705 175.49L145.977 169.355L144.984 169.473ZM146.266 175.052L141.656 174.518L141.541 175.512L146.151 176.045L146.266 175.052ZM142.094 174.951L141.366 169.35L140.374 169.479L141.102 175.08L142.094 174.951Z" fill="#183163" mask="url(#path-35-inside-6_1748_18784)"/>
<path fill-rule="evenodd" clip-rule="evenodd" d="M144.995 168.878L145.48 175.546C145.48 175.546 149.605 174.746 151.061 174.746C153.003 174.479 158.341 175.546 158.826 174.746C159.069 173.945 158.098 165.144 157.856 164.877C157.37 164.344 152.517 167.277 150.819 167.811" fill="#183163"/>
<path fill-rule="evenodd" clip-rule="evenodd" d="M150.818 172.881C150.576 172.881 150.333 169.681 150.333 169.681C150.333 169.414 150.333 169.414 150.576 169.414C150.818 169.414 150.818 169.414 150.818 169.681L151.061 172.881H150.818Z" fill="#F1F2F2"/>
<path fill-rule="evenodd" clip-rule="evenodd" d="M148.877 173.143L148.392 169.943C148.392 169.676 148.392 169.676 148.634 169.676C148.877 169.676 148.877 169.676 148.877 169.943L149.12 173.143H148.877Z" fill="#F1F2F2"/>
<mask id="path-40-inside-7_1748_18784" fill="white">
<path fill-rule="evenodd" clip-rule="evenodd" d="M104.473 168.078L103.745 174.213L108.113 173.946L108.841 168.345"/>
</mask>
<path fill-rule="evenodd" clip-rule="evenodd" d="M104.473 168.078L103.745 174.213L108.113 173.946L108.841 168.345" fill="white"/>
<path d="M103.745 174.213L103.249 174.154L103.178 174.748L103.776 174.712L103.745 174.213ZM108.113 173.946L108.143 174.445L108.555 174.42L108.609 174.01L108.113 173.946ZM103.977 168.019L103.249 174.154L104.242 174.272L104.97 168.137L103.977 168.019ZM103.776 174.712L108.143 174.445L108.082 173.447L103.715 173.714L103.776 174.712ZM108.609 174.01L109.337 168.409L108.345 168.28L107.617 173.882L108.609 174.01Z" fill="#183163" mask="url(#path-40-inside-7_1748_18784)"/>
<path fill-rule="evenodd" clip-rule="evenodd" d="M104.957 167.544L104.472 174.212C104.472 174.212 100.347 173.412 98.891 173.145C96.9498 172.878 91.6115 173.945 91.1262 173.145C90.8835 172.345 91.8541 163.543 92.3394 163.01C92.8247 162.476 97.6778 165.41 99.3763 165.944" fill="#183163"/>
<mask id="path-43-outside-8_1748_18784" maskUnits="userSpaceOnUse" x="106.625" y="150.371" width="56" height="27" fill="black">
<rect fill="white" x="106.625" y="150.371" width="56" height="27"/>
<path fill-rule="evenodd" clip-rule="evenodd" d="M155.185 151.808C155.185 151.808 161.008 148.874 161.979 158.209C162.707 165.944 156.64 167.811 156.64 167.811L108.353 176.08L107.625 166.211"/>
</mask>
<path fill-rule="evenodd" clip-rule="evenodd" d="M155.185 151.808C155.185 151.808 161.008 148.874 161.979 158.209C162.707 165.944 156.64 167.811 156.64 167.811L108.353 176.08L107.625 166.211" fill="white"/>
<path d="M155.127 151.617L107.567 166.02L107.683 166.402L155.242 152L155.127 151.617ZM161.979 158.209L162.377 158.172L162.377 158.168L161.979 158.209ZM156.64 167.811L156.708 168.206L156.733 168.201L156.758 168.194L156.64 167.811ZM108.353 176.08L107.954 176.109L107.986 176.548L108.42 176.474L108.353 176.08ZM155.185 151.808C155.364 152.165 155.364 152.165 155.364 152.166C155.364 152.166 155.364 152.166 155.364 152.166C155.364 152.166 155.364 152.166 155.364 152.166C155.364 152.166 155.364 152.166 155.365 152.165C155.366 152.164 155.369 152.163 155.373 152.161C155.382 152.157 155.395 152.151 155.414 152.143C155.451 152.126 155.507 152.102 155.58 152.074C155.727 152.017 155.94 151.945 156.199 151.885C156.721 151.765 157.408 151.7 158.112 151.894C159.461 152.265 161.104 153.662 161.581 158.251L162.377 158.168C161.883 153.421 160.129 151.618 158.324 151.122C157.45 150.882 156.621 150.967 156.02 151.106C155.718 151.175 155.468 151.26 155.293 151.327C155.205 151.361 155.136 151.391 155.087 151.412C155.062 151.423 155.043 151.432 155.029 151.439C155.022 151.442 155.017 151.445 155.013 151.447C155.011 151.448 155.009 151.449 155.007 151.449C155.007 151.45 155.006 151.45 155.006 151.45C155.005 151.45 155.005 151.451 155.005 151.451C155.005 151.451 155.005 151.451 155.185 151.808ZM161.58 158.247C161.933 161.991 160.645 164.276 159.299 165.629C158.62 166.311 157.92 166.764 157.389 167.045C157.125 167.186 156.903 167.283 156.75 167.345C156.674 167.376 156.615 167.397 156.576 167.411C156.556 167.418 156.542 167.423 156.533 167.426C156.528 167.427 156.525 167.428 156.524 167.429C156.523 167.429 156.522 167.429 156.522 167.429C156.522 167.429 156.522 167.429 156.522 167.429C156.522 167.429 156.522 167.429 156.522 167.429C156.523 167.429 156.523 167.429 156.64 167.811C156.758 168.194 156.758 168.194 156.759 168.193C156.759 168.193 156.759 168.193 156.759 168.193C156.76 168.193 156.76 168.193 156.761 168.193C156.762 168.192 156.764 168.192 156.766 168.191C156.77 168.19 156.776 168.188 156.783 168.186C156.797 168.181 156.816 168.175 156.841 168.166C156.891 168.148 156.961 168.122 157.049 168.087C157.225 168.016 157.472 167.907 157.764 167.752C158.349 167.442 159.119 166.944 159.866 166.193C161.372 164.679 162.753 162.163 162.377 158.172L161.58 158.247ZM156.573 167.417L108.285 175.685L108.42 176.474L156.708 168.206L156.573 167.417ZM108.752 176.05L108.024 166.182L107.226 166.24L107.954 176.109L108.752 176.05Z" fill="#183163" mask="url(#path-43-outside-8_1748_18784)"/>
<path fill-rule="evenodd" clip-rule="evenodd" d="M99.1323 171.547C99.3749 171.547 98.8896 171.28 98.8896 171.28L99.3749 168.079C99.3749 167.813 99.6176 167.812 99.6176 167.812C99.8602 167.812 99.8602 168.079 99.8602 168.079" fill="#F1F2F2"/>
<path fill-rule="evenodd" clip-rule="evenodd" d="M100.832 171.812C101.074 171.812 100.589 171.545 100.589 171.545L101.074 168.345C101.074 168.078 101.317 168.078 101.317 168.078C101.559 168.078 101.559 168.345 101.559 168.345" fill="#F1F2F2"/>
<path fill-rule="evenodd" clip-rule="evenodd" d="M128.252 151.542C128.252 152.342 127.039 153.142 125.341 153.142C123.885 153.142 122.429 152.342 122.429 151.542C122.429 150.742 123.642 149.941 125.341 149.941" fill="white"/>
<mask id="path-48-outside-9_1748_18784" maskUnits="userSpaceOnUse" x="89.7461" y="149.875" width="56" height="27" fill="black">
<rect fill="white" x="89.7461" y="149.875" width="56" height="27"/>
<path fill-rule="evenodd" clip-rule="evenodd" d="M97.6009 151.312C97.6009 151.312 91.7773 148.378 90.8067 157.713C90.0788 165.448 96.145 167.315 96.145 167.315L143.947 175.85L144.675 165.982"/>
</mask>
<path fill-rule="evenodd" clip-rule="evenodd" d="M97.6009 151.312C97.6009 151.312 91.7773 148.378 90.8067 157.713C90.0788 165.448 96.145 167.315 96.145 167.315L143.947 175.85L144.675 165.982" fill="white"/>
<path d="M144.75 165.743L97.6753 151.073L97.5266 151.551L144.601 166.22L144.75 165.743ZM90.8067 157.713L90.3094 157.662L90.3089 157.666L90.8067 157.713ZM96.145 167.315L95.998 167.793L96.0271 167.802L96.0572 167.807L96.145 167.315ZM143.947 175.85L143.859 176.342L144.405 176.44L144.446 175.887L143.947 175.85ZM97.6009 151.312C97.8259 150.866 97.8256 150.865 97.8253 150.865C97.8251 150.865 97.8247 150.865 97.8245 150.865C97.8239 150.865 97.8232 150.864 97.8225 150.864C97.821 150.863 97.8191 150.862 97.8169 150.861C97.8124 150.859 97.8066 150.856 97.7994 150.853C97.7849 150.846 97.7649 150.836 97.7397 150.825C97.6893 150.803 97.618 150.772 97.5283 150.738C97.3494 150.669 97.0955 150.583 96.788 150.512C96.1772 150.372 95.3297 150.284 94.4353 150.53C92.5735 151.041 90.805 152.895 90.3094 157.662L91.3041 157.765C91.7791 153.197 93.4076 151.849 94.7003 151.494C95.3831 151.306 96.0522 151.369 96.5637 151.487C96.8173 151.545 97.0259 151.616 97.1693 151.671C97.2408 151.698 97.2955 151.722 97.3309 151.738C97.3486 151.746 97.3614 151.752 97.3691 151.755C97.3729 151.757 97.3754 151.758 97.3766 151.759C97.3771 151.759 97.3774 151.759 97.3773 151.759C97.3772 151.759 97.3771 151.759 97.3769 151.759C97.3768 151.759 97.3766 151.759 97.3765 151.759C97.3763 151.759 97.376 151.759 97.6009 151.312ZM90.3089 157.666C89.9304 161.689 91.323 164.233 92.8484 165.767C93.604 166.527 94.383 167.03 94.9741 167.344C95.2701 167.501 95.5204 167.612 95.6992 167.684C95.7887 167.72 95.8604 167.746 95.9112 167.764C95.9366 167.773 95.9568 167.78 95.9714 167.785C95.9787 167.787 95.9846 167.789 95.989 167.79C95.9913 167.791 95.9931 167.792 95.9946 167.792C95.9954 167.792 95.996 167.792 95.9966 167.793C95.9969 167.793 95.9972 167.793 95.9973 167.793C95.9977 167.793 95.998 167.793 96.145 167.315C96.2921 166.837 96.2924 166.837 96.2926 166.837C96.2927 166.837 96.2929 166.838 96.293 166.838C96.2932 166.838 96.2933 166.838 96.2933 166.838C96.2933 166.838 96.293 166.838 96.2923 166.837C96.2909 166.837 96.2881 166.836 96.2839 166.835C96.2756 166.832 96.2618 166.827 96.243 166.821C96.2053 166.807 96.1474 166.786 96.0724 166.756C95.9223 166.696 95.7044 166.6 95.443 166.461C94.9195 166.183 94.2274 165.736 93.5575 165.062C92.2316 163.729 90.9551 161.473 91.3045 157.76L90.3089 157.666ZM96.0572 167.807L143.859 176.342L144.035 175.358L96.2329 166.823L96.0572 167.807ZM144.446 175.887L145.174 166.018L144.176 165.945L143.449 175.813L144.446 175.887Z" fill="#183163" mask="url(#path-48-outside-9_1748_18784)"/>
<path d="M154.129 50.0651L143.348 44.7451C142.49 44.318 142.684 43.031 143.631 42.8887L196.385 34.9649C196.738 34.9115 196.873 35.4156 196.538 35.5461L156.227 51.3166C155.851 51.4648 155.604 51.8266 155.604 52.2359V66.4287C155.604 67.2649 156.58 67.7216 157.209 67.176L166.12 59.5013C166.455 59.2166 166.931 59.187 167.295 59.4361L179.88 67.9885C180.338 68.3029 180.961 68.1665 181.255 67.692L200.952 35.5461C201.117 35.2792 200.823 34.9708 200.553 35.125L171.545 51.2869C166.355 54.1753 162.252 58.7066 159.86 64.1749C157.908 68.635 155.522 73.6111 153.858 75.5386C135.548 96.7122 98.3939 84.5003 100.046 95.8166C102.843 114.997 119.966 86.0127 99.7517 84.7079C75.5051 83.1422 46.2858 131.675 43.0412 132.767C39.7966 133.858 4.92268 107.062 7.43256 106.516C9.94245 105.97 69.8094 97.7857 73.054 101.06C76.2986 104.334 79.9724 144.285 77.3802 147.434C74.6763 150.72 15.4089 158.335 10.348 153.97C5.28711 149.605 3.11815 120.234 4.82863 112.572" stroke="#183163" stroke-linecap="round" stroke-linejoin="round"/>
</svg>
